<svg xmlns="http://www.w3.org/2000/svg"><symbol id="facebook" viewBox="0 0 252 252"><path d="M126.1 0A126.4 126.4 0 0 0-.3 126.5c0 69.5 56.5 126.1 126 126.2a126.1 126.1 0 0 0 126.6-126.1c0-70-56.5-126.7-126.2-126.6zm26.4 126h-17.1v61h-24.7v-60.2l-12.3-.9v-20.3l12.1-.7c0-5.7-.1-11.2 0-16.7.4-13.2 6.3-20.4 19.4-22.1 7.7-.9 15.5-.1 23.9-.1v20c-6.1 1-13.1.2-16.7 3.3s-1.4 9.9-2 15.8h19.1c-.6 7.2-1.1 13.7-1.7 20.9z"/></symbol><symbol id="instagram" viewBox="0 0 252 252"><path d="M126 0C56.7-.2 0 56.7 0 126.4S56.4 251.9 125.8 252A126 126 0 1 0 126 0zm54 154.7c-1 14.8-10.7 24.4-25.6 25.3a411.2 411.2 0 0 1-56.6.1c-15.9-1.1-25.3-12.6-26.2-28.7-.5-8.4-.1-16.8-.1-25.3 0-8.7-.5-17.4.1-26 1-16.3 12-27.7 28.1-28.4s35.2-.7 52.7 0c15.3.6 26.5 10.4 27.6 25.7a421.4 421.4 0 0 1 0 57.3z"/><path fill="#fff" d="M170.5 149.3c-.4 13.7-7.6 20.6-21.5 21.2-7.7.3-15.5.1-23.3.1-7.8 0-15.6.3-23.3 0-12.6-.7-19.8-6.8-20.5-19.3-.8-16.6-.8-33.4 0-50q.8-18.3 18.9-19.2a502.4 502.4 0 0 1 50.6-.1c12.4.7 18.7 8.1 19 20.7.4 15.5.5 31 .1 46.6z"/><path d="M151.4 81.9a502.4 502.4 0 0 0-50.6.1q-18.1.9-18.9 19.2c-.8 16.6-.8 33.4 0 50 .7 12.5 7.9 18.6 20.5 19.3 7.7.3 15.5 0 23.3 0 7.8 0 15.6.2 23.3-.1 13.9-.6 21.1-7.5 21.5-21.2.4-15.6.3-31.1-.1-46.7-.3-12.5-6.6-19.9-19-20.6zm-25.5 72.4a28 28 0 0 1-27.8-28.2 27.6 27.6 0 0 1 27.9-28 28.1 28.1 0 0 1 28.3 27.7 28.5 28.5 0 0 1-28.4 28.5zm37.2-55.8c-2.7 1.6-5.6 4.9-8 4.5s-5.4-4.2-5.8-6.9 4-5.5 6.2-5.6 5.2 3.2 7.7 5c0 1 0 2-.1 3z"/><path d="M126.5 108.1a18 18 0 1 0-.6 35.9 17.7 17.7 0 0 0 18-17.6 17.9 17.9 0 0 0-17.4-18.3z"/></symbol><symbol id="toggle-nav-close" viewBox="0 0 252 252"><path d="M91.9 127.6c-12.5-12.5-24.4-24.5-36.4-36.4l-37.4-37C10.8 47 7.6 38.6 11.6 28.7s11.8-16.2 22.9-17c7.2-.5 12.9 2.9 17.9 7.9l30.1 29.9L125.8 93l3-2.8 70.5-70.6c6.7-6.7 14.3-10.3 23.7-7.4s16.1 9.7 18.5 19.8c1.9 7.9-.7 14.7-6.2 20.4l-19.1 19.1q-26.2 26.4-52.7 52.7a37.2 37.2 0 0 1-3.4 2.6l3.4 3.6 68.7 68.9c4.5 4.6 8.5 9.3 9.3 16.1 1.1 9.6-4.7 20-14.3 25s-18.6 3.6-26.2-3.8c-18.2-18-36.2-36.1-54.3-54.2l-21.5-21.7c-.8 1.5-1.1 2.9-2 3.8-23.3 23.6-46.9 46.9-70 70.6-16.6 17-37.7 4.5-41.9-10.7a21.3 21.3 0 0 1 3.1-18.8 45.3 45.3 0 0 1 5-5.7q34.5-34.8 69.1-69.4c1-1 2-1.7 3.4-2.9z"/></symbol><symbol id="premium-ingredients" viewBox="0 0 252 252"><path d="M92.7 170.4l6 12.8a1.9 1.9 0 0 0 2.7.7l11.6-8a1.9 1.9 0 0 1 2.5.3l9.1 10.7a1.8 1.8 0 0 0 2.8 0c3.1-3.5 6.1-7.1 9.1-10.7a1.9 1.9 0 0 1 2.5-.3l11.6 8a1.9 1.9 0 0 0 2.7-.7c2-4.3 4-8.5 6.1-12.8a1.9 1.9 0 0 1 2.3-1l7.1 2.6a3.8 3.8 0 0 1 2.3 3.4c.1 17.6.1 53.7.1 73.5a1.9 1.9 0 0 1-2.6 1.7l-4.6-2-36.3-15.5a5.3 5.3 0 0 0-3.5.1l-40.8 17.4a1.9 1.9 0 0 1-2.6-1.7v-17.2c0-10 .1-46.2 0-56.3 0-2.1.6-2.9 2.6-3.5s4.6-1.6 7-2.5a1.9 1.9 0 0 1 2.3 1z"/><path d="M210 84.2l-6.9-5.8a3.1 3.1 0 0 1-.5-4l5.1-7.5a3 3 0 0 0-1.1-4.4l-8.2-3.9a2.9 2.9 0 0 1-1.5-3.7l3-8.5a3.1 3.1 0 0 0-2.3-4l-8.8-1.6a3.1 3.1 0 0 1-2.5-3.2c.3-3.1.5-6 .7-9a2.9 2.9 0 0 0-3.2-3.2l-6.1.4c-5.6.5-5.6.5-6.6-4.9-.3-2.1-.7-4.1-1.1-6.2a3.1 3.1 0 0 0-3.9-2.3l-8.6 3.1a3.1 3.1 0 0 1-3.7-1.6l-3.9-8.1a3 3 0 0 0-4.4-1.2l-7.4 5.1a2.8 2.8 0 0 1-3.9-.5l-5.9-6.9a3 3 0 0 0-4.6 0l-5.8 6.9a3 3 0 0 1-4 .5l-7.4-5.1a3 3 0 0 0-4.4 1.2l-3.9 8.1a3.1 3.1 0 0 1-3.7 1.6l-8.5-3a3 3 0 0 0-4 2.3c-.5 2.8-.9 5.4-1.4 8.1s-.8 3.5-4.6 3.1l-7.8-.6a2.9 2.9 0 0 0-3.2 3.2c.2 3.2.4 6.3.8 9.4s-.6 2.6-2.4 2.8l-9 1.6a3.1 3.1 0 0 0-2.3 4c1.1 2.9 2 5.7 3.1 8.5a3 3 0 0 1-1.6 3.7l-8.1 3.9a2.9 2.9 0 0 0-1.2 4.4l5.1 7.5a2.8 2.8 0 0 1-.5 3.9L42 84.2a3 3 0 0 0 0 4.6l6.9 5.9a2.8 2.8 0 0 1 .5 3.9l-5.1 7.5a2.9 2.9 0 0 0 1.2 4.4l8.1 3.9a3 3 0 0 1 1.6 3.7l-3.1 8.5a3.1 3.1 0 0 0 2.3 4c3.1.6 6.2 1.2 9.2 1.6s2.4.9 2.2 2.7-.6 6.4-.8 9.6a2.9 2.9 0 0 0 3.1 3.2h.1c3.2-.3 6.5-.5 9.7-.9 1.5-.1 2.2.3 2.5 2s1 6.2 1.6 9.5a3.1 3.1 0 0 0 4 2.2l8.5-3a3.1 3.1 0 0 1 3.7 1.6l3.9 8.1a2.9 2.9 0 0 0 4.4 1.2l7.4-5.1a3 3 0 0 1 4 .5l5.8 6.9a3 3 0 0 0 4.6 0l5.8-6.9a3 3 0 0 1 4-.5l7.5 5.1a3 3 0 0 0 4.4-1.2l3.8-8.1a3.1 3.1 0 0 1 3.7-1.6l8.6 3a2.9 2.9 0 0 0 3.9-2.3c.3-1.4.5-2.9.8-4.3a8.1 8.1 0 0 1 8.6-6.6l4.5.3a2.9 2.9 0 0 0 3.1-3.2c-.2-3.3-.4-6.4-.8-9.4s.4-2.5 2.2-2.8l9.2-1.6a3.1 3.1 0 0 0 2.3-4l-3-8.5a2.9 2.9 0 0 1 1.5-3.7l8.2-3.9a3 3 0 0 0 1.1-4.4l-5.1-7.5a2.9 2.9 0 0 1 .5-3.9l6.9-5.9a3 3 0 0 0 0-4.6zm-84 63.2a60.9 60.9 0 1 1 60.9-60.9 60.9 60.9 0 0 1-60.9 60.9z"/><path d="M126 31.9a54.6 54.6 0 1 0 54.6 54.6A54.6 54.6 0 0 0 126 31.9zm30 39.2l-35.4 43.8a4.2 4.2 0 0 1-3.3 1.6h-.2a4.2 4.2 0 0 1-3.2-1.3L96.2 96.7a4.5 4.5 0 1 1 6.5-6.2l14.2 14.8 32.2-39.9a4.5 4.5 0 1 1 6.9 5.7z"/></symbol><symbol id="vegan" viewBox="0 0 252 252"><path d="M129.7 35.3a4.6 4.6 0 0 0-7.4 0c-9.2 13-32.5 48.6-29.4 75.5s10.9 42.9 24.7 46.9l8.4-71.2 7.5 71.4c14.3-3.5 22.3-18.3 25.6-47.1 3.1-26.9-20.2-62.5-29.4-75.5zm110.5 90.4a4.5 4.5 0 0 0-5.2-5.2c-15.6 2.6-57.3 11.4-74.2 32.6s-22.6 38.1-15.6 50.6l56.2-44.4-45.2 55.7c12.7 7.7 28.8 2.9 51.5-15.1s29.9-58.5 32.5-74.2zM17 120.5a4.5 4.5 0 0 0-5.2 5.2c2.6 15.7 11.3 57.3 32.5 74.2s38.1 22.6 50.7 15.6l-44.4-56.2 55.7 45.2c7.7-12.7 2.9-28.7-15.1-51.4-16.9-21.2-58.6-30-74.2-32.6z"/></symbol><symbol id="shopping-card" viewBox="0 0 252 252"><path d="M217.8 246.5L203.7 63.9a5.1 5.1 0 0 0-5.1-4.8h-21.2C176.1 26.2 153.5 0 126 0S75.9 26.2 74.6 59.1H53.4a5.1 5.1 0 0 0-5.1 4.8L34.2 246.5a5.2 5.2 0 0 0 5.1 5.5h173.4a5.2 5.2 0 0 0 5.1-5.5zM126 11.2c21.4 0 38.9 21.2 40.2 47.9H85.8c1.3-26.7 18.8-47.9 40.2-47.9zm0 191.5C55.5 157 70 118.1 92.5 112s33.5 14.7 33.5 14.7 11-20.8 33.5-14.7 37 45-33.5 90.7z"/></symbol><symbol id="unique-flavours" viewBox="0 0 252 252"><path d="M22.9 132.4c3.5-4.6 7.2-9.2 10.6-14a4.9 4.9 0 0 0 .8-3.9c-1.6-5.7-3.4-11.3-5.3-17.4l16.5 6c1.8.7 3.2.9 5-.5 4.6-3.5 9.4-6.6 14.1-9.8 0 5.5.2 10.9-.1 16.2a6.2 6.2 0 0 0 3.1 6.3c4.3 3 8.5 6.3 13.2 9.9-6.1 1.8-11.5 3.4-17 4.8a4.7 4.7 0 0 0-3.7 3.6c-1.7 5.4-3.6 10.7-5.7 16.7-3.4-5.1-6.6-9.7-9.5-14.3a5.4 5.4 0 0 0-5.1-2.8c-5.6-.1-11.1-.5-16.9-.8zm121.9 26.2c7.1-7.3 14.3-14.6 21.2-22.1a9.3 9.3 0 0 0 2.1-6.8c-1.6-10.1-3.8-20.2-5.8-31.2 9.6 4.8 18.6 9.2 27.4 13.7 3.1 1.6 5.4 2.1 8.8.1 8.6-5.1 17.6-9.6 26.3-14.3-1.1 9.6-1.8 19-3.3 28.1-.9 5 .3 8.3 4.1 11.6 7 6 13.5 12.6 21.1 19.7-11 1.9-20.8 3.7-30.5 5-3.7.5-5.6 2.1-7.1 5.4-3.9 9.1-8.3 17.9-13.1 28-4.9-9.6-9.6-18.1-13.8-26.8-1.8-3.6-4-5.3-8.2-5.8-9.6-1.2-19.2-3-29.2-4.6zM131.3 24.9a15.1 15.1 0 0 0-13.4 1.2 15.4 15.4 0 0 0-1.2-13.4 15.1 15.1 0 0 0 13.4-1.2c-1.6 4.7-1.5 9.1 1.2 13.4zM178.6 81c-3.5-3.5-7.4-5.3-12.5-4.9a15.1 15.1 0 0 0 4.9-12.6c3.5 3.6 7.4 5.4 12.5 5.1-3.5 3.5-5.4 7.4-4.9 12.4zm-59.2 40.5c-2.3-5.7-4.3-10.2-5.9-14.8s-2.7-4.9-6.2-5.5-9.4-2.5-15.5-4.1c6.1-2.4 11.1-4.2 15.8-6.5a8.4 8.4 0 0 0 4-4.5c1.6-4.9 2.7-10 5-15.4 1.9 4.7 3.9 9.4 5.6 14.1a6.6 6.6 0 0 0 5.6 4.9c5 1 10 2.5 15.9 4.1-5.9 2.4-11.1 4.3-16 6.7a7.4 7.4 0 0 0-3.7 4.1c-1.7 5.1-2.9 10.4-4.6 16.9zm12.8 81.3c5.9 3.2 10.5 5.8 15.4 8a7.2 7.2 0 0 0 5.6.2c5.1-2 10-4.5 15.7-7.2-2.8 5.4-5 10.2-7.7 14.5-1.7 2.7-1.5 4.9-.2 7.5 2.3 4.4 4.3 9 7 14.7-5.8-3.1-10.4-5.8-15.2-7.9a8.8 8.8 0 0 0-6-.1c-5 1.9-9.7 4.3-15.5 7 3-5.6 5.7-10.2 7.9-15.1a8.8 8.8 0 0 0 .1-6c-1.8-4.9-4.3-9.5-7.1-15.6zm-32.4-38c-2.8 10-1.1 18.7 6 27.6-10.8-2.6-19.6-1.5-27.7 4.9 1.7-9.7 1-18.6-6.7-26.8 6.1.3 10.9 1.5 15.3.6s8.1-3.8 13.1-6.3z"/><circle cx="81.9" cy="229.6" r="4.8"/><circle cx="118.8" cy="152.1" r="5.2"/><circle cx="171.9" cy="32" r="2.9"/><circle cx="9.8" cy="191.3" r="4.5"/></symbol></svg>