<svg xmlns="http://www.w3.org/2000/svg" width="252" height="252" viewBox="0 0 252 252"><path d="M126 0C56.7-.2 0 56.7 0 126.4S56.4 251.9 125.8 252A126 126 0 1 0 126 0zm54 154.7c-1 14.8-10.7 24.4-25.6 25.3a411.2 411.2 0 0 1-56.6.1c-15.9-1.1-25.3-12.6-26.2-28.7-.5-8.4-.1-16.8-.1-25.3 0-8.7-.5-17.4.1-26 1-16.3 12-27.7 28.1-28.4s35.2-.7 52.7 0c15.3.6 26.5 10.4 27.6 25.7a421.4 421.4 0 0 1 0 57.3z"/><path fill="#fff" d="M170.5 149.3c-.4 13.7-7.6 20.6-21.5 21.2-7.7.3-15.5.1-23.3.1-7.8 0-15.6.3-23.3 0-12.6-.7-19.8-6.8-20.5-19.3-.8-16.6-.8-33.4 0-50q.8-18.3 18.9-19.2a502.4 502.4 0 0 1 50.6-.1c12.4.7 18.7 8.1 19 20.7.4 15.5.5 31 .1 46.6z"/><path d="M151.4 81.9a502.4 502.4 0 0 0-50.6.1q-18.1.9-18.9 19.2c-.8 16.6-.8 33.4 0 50 .7 12.5 7.9 18.6 20.5 19.3 7.7.3 15.5 0 23.3 0 7.8 0 15.6.2 23.3-.1 13.9-.6 21.1-7.5 21.5-21.2.4-15.6.3-31.1-.1-46.7-.3-12.5-6.6-19.9-19-20.6zm-25.5 72.4a28 28 0 0 1-27.8-28.2 27.6 27.6 0 0 1 27.9-28 28.1 28.1 0 0 1 28.3 27.7 28.5 28.5 0 0 1-28.4 28.5zm37.2-55.8c-2.7 1.6-5.6 4.9-8 4.5s-5.4-4.2-5.8-6.9 4-5.5 6.2-5.6 5.2 3.2 7.7 5c0 1 0 2-.1 3z"/><path d="M126.5 108.1a18 18 0 1 0-.6 35.9 17.7 17.7 0 0 0 18-17.6 17.9 17.9 0 0 0-17.4-18.3z"/></svg>