<?xml version="1.0" encoding="utf-8"?>
<!-- Generator: Adobe Illustrator 22.1.0, SVG Export Plug-In . SVG Version: 6.00 Build 0)  -->
<svg version="1.1" id="Layer_1" xmlns="http://www.w3.org/2000/svg" xmlns:xlink="http://www.w3.org/1999/xlink" x="0px" y="0px"
	 viewBox="0 0 64 64" style="enable-background:new 0 0 64 64;" xml:space="preserve">
<style type="text/css">
	.st0{fill:#4DC2C1;stroke:#EEF8F7;stroke-width:1.1238;stroke-linecap:round;stroke-linejoin:round;stroke-miterlimit:10;}
	.st1{fill:#4FC2C1;stroke:#EEF8F7;stroke-width:1.1238;stroke-linecap:round;stroke-linejoin:round;stroke-miterlimit:10;}
	.st2{fill:#1D575B;}
	.st3{fill:#F06598;}
	.st4{fill:#FCBA61;}
	.st5{fill:#F26C57;}
	.st6{fill:#A678A8;}
	.st7{fill:#1C565A;}
	.st8{fill:#ABDDDD;}
	.st9{fill:none;stroke:#EEF8F7;stroke-width:1.1238;stroke-linecap:round;stroke-linejoin:round;stroke-miterlimit:10;}
	.st10{fill:#3BBDC2;}
</style>
<g>
	<path class="st0" d="M36.1,33.2c0,0-10.7-17.3-22.6-13.6s-6.7,16.6-2.7,23.5s11.3,9.5,20.5,9c9.2-0.5,16.7-10.3,18.2-21.3
		c0,0,5.5,2.5,9.1-1.6c0,0-7.4-6.2-9.8-3.6c0,0,1.2-3.9-7.1-8.5c0,0-3.6,6.2,4.3,11.2c0,0,0.2,5.8-4.3,6.4
		C37.3,35.2,36.1,33.2,36.1,33.2z"/>
	<path class="st1" d="M5.2,51.1l5.6-8.1c1.5,2.5,3.4,4.5,5.6,5.9C16.4,48.9,11.8,53.5,5.2,51.1z"/>
	<circle class="st2" cx="20.6" cy="32.5" r="1"/>
	<path class="st3" d="M16.9,14L16.9,14c-0.3-0.3-0.3-0.6-0.1-0.8l1.3-1.4c0.2-0.2,0.5-0.2,0.8,0l0.1,0.1c0.2,0.2,0.2,0.5,0,0.8
		L17.7,14C17.5,14.2,17.1,14.2,16.9,14z"/>
	<path class="st4" d="M33,9L33,9c-0.3-0.2-0.4-0.5-0.3-0.8l1-1.6c0.2-0.3,0.5-0.3,0.7-0.2l0.1,0.1c0.3,0.2,0.3,0.5,0.2,0.7l-1,1.6
		C33.6,9.1,33.3,9.2,33,9z"/>
	<path class="st5" d="M36.9,14.5L36.9,14.5c-0.2-0.3-0.2-0.7,0.1-0.8l1.5-1.1c0.2-0.2,0.6-0.1,0.7,0.1l0.1,0.1
		c0.2,0.2,0.1,0.6-0.1,0.7l-1.5,1.1C37.4,14.8,37.1,14.8,36.9,14.5z"/>
	<path class="st3" d="M43.9,13.6L43.9,13.6c0.1-0.4,0.3-0.6,0.6-0.6l1.8,0.3c0.3,0,0.5,0.3,0.5,0.6l0,0.1c0,0.3-0.3,0.5-0.6,0.5
		l-1.8-0.3C44.1,14.2,43.9,13.9,43.9,13.6z"/>
	<path class="st6" d="M42.3,9.2L42.3,9.2c-0.4,0.1-0.7-0.1-0.7-0.4l-0.3-1.8c-0.1-0.3,0.1-0.6,0.4-0.6l0.1,0
		c0.3-0.1,0.6,0.1,0.6,0.4l0.3,1.8C42.8,8.8,42.6,9.1,42.3,9.2z"/>
	<path class="st6" d="M36.3,27.8L36.3,27.8c-0.4,0.1-0.7-0.1-0.7-0.4l-0.3-1.8c-0.1-0.3,0.1-0.6,0.4-0.6l0.1,0
		c0.3-0.1,0.6,0.1,0.6,0.4l0.3,1.8C36.8,27.5,36.6,27.8,36.3,27.8z"/>
	<path class="st7" d="M34,17.7L34,17.7c0.2-0.3,0.6-0.4,0.8-0.2l1.5,1.1c0.2,0.2,0.3,0.5,0.1,0.7l-0.1,0.1c-0.2,0.2-0.5,0.3-0.7,0.1
		l-1.5-1.1C33.9,18.3,33.9,18,34,17.7z"/>
	<path class="st7" d="M27.1,3.5L27.1,3.5c-0.2-0.3-0.1-0.7,0.1-0.8l1.6-1c0.3-0.2,0.6-0.1,0.7,0.2L29.6,2c0.2,0.3,0.1,0.6-0.2,0.7
		l-1.6,1C27.5,3.8,27.2,3.8,27.1,3.5z"/>
	<path class="st3" d="M28.3,13.9L28.3,13.9c0.4-0.1,0.7,0,0.8,0.3l0.6,1.8c0.1,0.3,0,0.6-0.3,0.7l-0.1,0c-0.3,0.1-0.6,0-0.7-0.3
		L28,14.5C27.9,14.3,28,14,28.3,13.9z"/>
	<path class="st4" d="M29.4,22.7L29.4,22.7c-0.1-0.4,0.1-0.7,0.3-0.8l1.8-0.5c0.3-0.1,0.6,0.1,0.7,0.4l0,0.1
		c0.1,0.3-0.1,0.6-0.4,0.7L30.1,23C29.8,23.1,29.5,23,29.4,22.7z"/>
	<path class="st6" d="M23.3,10.6L23.3,10.6c-0.1-0.4,0.1-0.7,0.4-0.7l1.8-0.4c0.3-0.1,0.6,0.1,0.6,0.4l0,0.1
		c0.1,0.3-0.1,0.6-0.4,0.6L23.9,11C23.6,11,23.3,10.9,23.3,10.6z"/>
	<path class="st5" d="M20.2,2.9L20.2,2.9c0.3-0.3,0.6-0.2,0.8,0l1.2,1.4c0.2,0.2,0.2,0.6-0.1,0.8l-0.1,0.1c-0.2,0.2-0.6,0.2-0.8-0.1
		l-1.2-1.4C20,3.5,20,3.1,20.2,2.9z"/>
	<path class="st7" d="M15.9,6.2L15.9,6.2c0.4,0.1,0.6,0.3,0.6,0.6l-0.3,1.8c0,0.3-0.3,0.5-0.6,0.5l-0.1,0c-0.3,0-0.5-0.3-0.5-0.6
		l0.3-1.8C15.4,6.4,15.7,6.2,15.9,6.2z"/>
	<path class="st4" d="M11.6,13.6L11.6,13.6c0.3-0.2,0.7-0.1,0.8,0.1l1,1.6c0.2,0.3,0.1,0.6-0.2,0.7l-0.1,0.1
		c-0.3,0.2-0.6,0.1-0.7-0.2l-1-1.6C11.3,14.1,11.4,13.8,11.6,13.6z"/>
	<path class="st6" d="M8.3,5.3L8.3,5.3c0.3-0.3,0.6-0.2,0.8,0l1.2,1.4c0.2,0.2,0.2,0.6-0.1,0.8l-0.1,0.1C10,7.7,9.6,7.7,9.4,7.5
		L8.2,6.1C8,5.8,8.1,5.5,8.3,5.3z"/>
	<path class="st5" d="M20.4,16.7l0-0.2c-0.1-0.3,0.1-0.5,0.3-0.6l1.5-0.4c0.3-0.1,0.5,0.1,0.6,0.3l0,0.2c0.1,0.3-0.1,0.5-0.3,0.6
		l-1.5,0.4C20.8,17.1,20.5,17,20.4,16.7z"/>
	<path class="st8" d="M28.4,28.9c0.2-0.4,0-0.9-0.3-1.2c-1.4-1.4-6-6.1-8.5-5c-2.9,1.2,6.7,5.4,7.8,6.3C28,29.4,28.3,29.2,28.4,28.9
		z"/>
	<path class="st8" d="M16.4,22.2c0,0.4-1.3,0.7-1.7,0.7c-0.4,0-0.8-0.3-0.8-0.7c0-0.4,0.4-0.7,0.8-0.7
		C15.2,21.6,16.4,21.9,16.4,22.2z"/>
	<path class="st9" d="M36.1,33.2c0,0-10.7-17.3-22.6-13.6s-6.7,16.6-2.7,23.5s11.3,9.5,20.5,9c9.2-0.5,16.7-10.3,18.2-21.3
		c0,0,5.5,2.5,9.1-1.6c0,0-7.4-6.2-9.8-3.6c0,0,1.2-3.9-7.1-8.5c0,0-3.6,6.2,4.3,11.2c0,0,0.2,5.8-4.3,6.4
		C37.3,35.2,36.1,33.2,36.1,33.2z"/>
	<path class="st10" d="M6.4,31l4.2,3.7c3.6,7.4,10.1,15.7,20.6,13.1c18.2-4.5,17.9-17.8,17.9-17.8C47.7,40,41.9,49.2,33.7,51
		c0.1,8-5.3,10.7-5.3,10.7l-2.6-10.5c-6.6-0.7-11.8-3.4-15-8.9C9.1,39.2,7.1,35,6.4,31"/>
	<path class="st9" d="M6.2,29.9c0,0,3.3,7.8,16.1,8.8"/>
	<path class="st1" d="M23.9,44.2l4.5,18.3c0,0,8.4-4.2,4.1-17.5l6.1-1.4"/>
</g>
</svg>
