<svg enable-background="new 0 0 16 16" viewBox="0 0 16 16" xmlns="http://www.w3.org/2000/svg"><path d="m10 9.4s-3-4.9-6.4-3.9-1.9 4.7-.8 6.7 3.2 2.7 5.8 2.6 4.7-2.9 5.2-6.1c0 0 1.6.7 2.6-.5 0 0-2.1-1.8-2.8-1 0 0 .3-1.1-2-2.4 0 0-1 1.8 1.2 3.2 0 0 .1 1.7-1.2 1.8s-1.6-.4-1.6-.4z" style="fill:#4dc2c1;stroke:#eef8f7;stroke-width:.3186;stroke-linecap:round;stroke-linejoin:round;stroke-miterlimit:10"/><path d="m1.2 14.4 1.6-2.3c.4.7 1 1.3 1.6 1.7 0 0-1.3 1.3-3.2.6z" style="fill:#4fc2c1;stroke:#eef8f7;stroke-width:.3186;stroke-linecap:round;stroke-linejoin:round;stroke-miterlimit:10"/><circle cx="5.6" cy="9.2" fill="#1d575b" r=".3"/><path d="m4.5 3.9c-.1-.1-.1-.2 0-.2l.4-.4c.1-.1.2-.1.2 0 .1.1.1.2 0 .2l-.3.4c-.1.1-.2.1-.3 0z" fill="#f06598"/><path d="m9.1 2.5c-.1-.1-.1-.1-.1-.2l.3-.5c0-.1.1-.1.2-.1.1 0 .1.1.1.2l-.3.6s-.1 0-.2 0z" fill="#fcba61"/><path d="m10.2 4.1c-.1-.1-.1-.2 0-.2l.4-.3h.2v.2l-.4.3c-.1 0-.2 0-.2 0z" fill="#f26c57"/><path d="m12.2 3.8c0-.1.1-.2.2-.2l.5.1c.1 0 .1.1.1.2 0 .1-.1.1-.2.1h-.5c-.1 0-.1-.1-.1-.2z" fill="#f06598"/><path d="m11.7 2.5c-.1 0-.2 0-.2-.1l-.1-.5c0-.1 0-.2.1-.2.1 0 .2 0 .2.1l.1.5c.1.1 0 .2-.1.2z" fill="#a678a8"/><path d="m10 7.8c-.1 0-.2 0-.2-.1l-.1-.5c0-.1 0-.2.1-.2.1 0 .2 0 .2.1l.1.5c.1.1 0 .2-.1.2z" fill="#a678a8"/><path d="m9.4 5c.1-.1.2-.1.2-.1l.4.3c.1 0 .1.1 0 .2 0 .1-.1.1-.2 0l-.4-.2c0-.1-.1-.2 0-.2z" fill="#1c565a"/><path d="m7.4.9c-.1-.1 0-.2 0-.2l.4-.3h.2v.2l-.4.4c-.1 0-.1 0-.2-.1z" fill="#1c565a"/><path d="m7.8 3.9c.1-.1.2 0 .2.1l.2.5c0 .1 0 .2-.1.2-.1 0-.2 0-.2-.1l-.2-.5c-.1-.1 0-.2.1-.2z" fill="#f06598"/><path d="m8.1 6.4c0-.1 0-.2.1-.2l.5-.2c.1 0 .2 0 .2.1 0 .1 0 .2-.1.2l-.5.2c-.1 0-.2 0-.2-.1z" fill="#fcba61"/><path d="m6.3 2.9c0-.1 0-.2.1-.2l.6-.1c.1 0 .2 0 .2.1 0 .1 0 .2-.1.2l-.6.2c-.1 0-.1-.1-.2-.2z" fill="#a678a8"/><path d="m5.5.8c.1-.1.2-.1.2 0l.3.4c.1.1 0 .2 0 .2-.1.1-.2 0-.2 0l-.3-.4c-.1-.1-.1-.2 0-.2z" fill="#f26c57"/><path d="m4.3 1.7c.1 0 .2.1.2.2l-.2.5c0 .1-.1.1-.2.1s-.1-.1-.1-.1l.1-.5c0-.1.1-.2.2-.2z" fill="#1c565a"/><path d="m3 3.8c.1-.1.2 0 .2 0l.3.4v.2c-.1 0-.2 0-.2 0l-.3-.4c-.1-.1 0-.2 0-.2z" fill="#fcba61"/><path d="m2.1 1.5c.1-.1.2-.1.2 0l.3.4c.1.1 0 .2 0 .2-.1.1-.2 0-.2 0l-.3-.4c-.1-.1-.1-.2 0-.2z" fill="#a678a8"/><path d="m5.5 4.7c0-.1 0-.2.1-.2l.4-.2c.1 0 .2 0 .2.1 0 .1 0 .2-.1.2l-.4.2c-.1 0-.1 0-.2-.1z" fill="#f26c57"/><path d="m7.8 8.1c0-.1 0-.2-.1-.3-.4-.4-1.7-1.7-2.4-1.4-.8.3 1.9 1.5 2.2 1.8.2.1.3 0 .3-.1z" fill="#abdddd"/><path d="m4.4 6.2c0 .1-.4.2-.5.2s-.2 0-.2-.2.1-.2.2-.2.5.1.5.2z" fill="#abdddd"/><path d="m10 9.4s-3-4.9-6.4-3.9-1.9 4.7-.8 6.7 3.2 2.7 5.8 2.6 4.7-2.9 5.2-6.1c0 0 1.6.7 2.6-.5 0 0-2.1-1.8-2.8-1 0 0 .3-1.1-2-2.4 0 0-1 1.8 1.2 3.2 0 0 .1 1.7-1.2 1.8s-1.6-.4-1.6-.4z" style="fill:none;stroke:#eef8f7;stroke-width:.3186;stroke-linecap:round;stroke-linejoin:round;stroke-miterlimit:10"/><path d="m1.6 8.7 1.2 1c1 2.1 2.9 4.4 5.9 3.7 5.1-1.3 5.1-5 5.1-5-.4 2.9-2.1 5.5-4.4 6 0 2.3-1.5 3-1.5 3l-.7-3c-1.9-.2-3.3-1-4.2-2.5-.7-.8-1.3-2-1.4-3.2" fill="#3bbdc2"/><g stroke="#eef8f7" stroke-linecap="round" stroke-linejoin="round" stroke-miterlimit="10" stroke-width=".3186"><path d="m1.5 8.4s.9 2.2 4.6 2.5" fill="none"/><path d="m6.5 12.5 1.3 5.2s2.4-1.2 1.2-5l1.7-.4" fill="#4fc2c1"/></g></svg>