<?xml version="1.0" encoding="utf-8"?>
<!-- Generator: Adobe Illustrator 22.1.0, SVG Export Plug-In . SVG Version: 6.00 Build 0)  -->
<svg version="1.1" id="Layer_1" xmlns="http://www.w3.org/2000/svg" xmlns:xlink="http://www.w3.org/1999/xlink" x="0px" y="0px"
	 viewBox="0 0 32 32" style="enable-background:new 0 0 32 32;" xml:space="preserve">
<style type="text/css">
	.st0{fill:#4DC2C1;stroke:#EEF8F7;stroke-width:0.5493;stroke-linecap:round;stroke-linejoin:round;stroke-miterlimit:10;}
	.st1{fill:#4FC2C1;stroke:#EEF8F7;stroke-width:0.5493;stroke-linecap:round;stroke-linejoin:round;stroke-miterlimit:10;}
	.st2{fill:#1D575B;}
	.st3{fill:#F06598;}
	.st4{fill:#FCBA61;}
	.st5{fill:#F26C57;}
	.st6{fill:#A678A8;}
	.st7{fill:#1C565A;}
	.st8{fill:#ABDDDD;}
	.st9{fill:none;stroke:#EEF8F7;stroke-width:0.5493;stroke-linecap:round;stroke-linejoin:round;stroke-miterlimit:10;}
	.st10{fill:#3BBDC2;}
</style>
<g>
	<path class="st0" d="M18.2,16.6c0,0-5.2-8.5-11.1-6.7s-3.3,8.1-1.3,11.5s5.5,4.6,10,4.4c4.5-0.2,8.2-5,8.9-10.4
		c0,0,2.7,1.2,4.5-0.8c0,0-3.6-3-4.8-1.7c0,0,0.6-1.9-3.5-4.2c0,0-1.8,3,2.1,5.5c0,0,0.1,2.8-2.1,3.1S18.2,16.6,18.2,16.6z"/>
	<path class="st1" d="M3.1,25.4l2.7-3.9c0.7,1.2,1.6,2.2,2.8,2.9C8.6,24.3,6.3,26.6,3.1,25.4z"/>
	<circle class="st2" cx="10.6" cy="16.3" r="0.5"/>
	<path class="st3" d="M8.8,7.2L8.8,7.2c-0.1-0.1-0.1-0.3,0-0.4l0.6-0.7c0.1-0.1,0.3-0.1,0.4,0l0,0c0.1,0.1,0.1,0.3,0,0.4L9.2,7.2
		C9.1,7.3,9,7.3,8.8,7.2z"/>
	<path class="st4" d="M16.7,4.8L16.7,4.8c-0.2-0.1-0.2-0.3-0.1-0.4l0.5-0.8c0.1-0.1,0.2-0.2,0.4-0.1l0,0c0.1,0.1,0.2,0.2,0.1,0.4
		l-0.5,0.8C17,4.8,16.8,4.9,16.7,4.8z"/>
	<path class="st5" d="M18.6,7.5L18.6,7.5c-0.1-0.2-0.1-0.3,0-0.4l0.7-0.5c0.1-0.1,0.3-0.1,0.4,0.1l0,0c0.1,0.1,0.1,0.3-0.1,0.4
		L19,7.6C18.9,7.6,18.7,7.6,18.6,7.5z"/>
	<path class="st3" d="M22,7.1L22,7.1c0-0.2,0.2-0.3,0.3-0.3l0.9,0.1c0.1,0,0.2,0.2,0.2,0.3l0,0c0,0.1-0.2,0.2-0.3,0.2l-0.9-0.1
		C22.1,7.3,22,7.2,22,7.1z"/>
	<path class="st6" d="M21.2,4.9L21.2,4.9c-0.2,0-0.3-0.1-0.4-0.2l-0.2-0.9c0-0.1,0.1-0.3,0.2-0.3l0,0c0.1,0,0.3,0.1,0.3,0.2l0.2,0.9
		C21.5,4.7,21.4,4.8,21.2,4.9z"/>
	<path class="st6" d="M18.3,14L18.3,14C18.1,14,18,14,18,13.8l-0.2-0.9c0-0.1,0.1-0.3,0.2-0.3l0,0c0.1,0,0.3,0.1,0.3,0.2l0.2,0.9
		C18.6,13.8,18.5,14,18.3,14z"/>
	<path class="st7" d="M17.2,9.1L17.2,9.1c0.1-0.2,0.3-0.2,0.4-0.1l0.7,0.5c0.1,0.1,0.1,0.2,0.1,0.4l0,0C18.3,10,18.1,10,18,10
		l-0.7-0.5C17.2,9.3,17.1,9.2,17.2,9.1z"/>
	<path class="st7" d="M13.8,2.1L13.8,2.1c-0.1-0.2-0.1-0.3,0.1-0.4l0.8-0.5c0.1-0.1,0.3,0,0.4,0.1l0,0c0.1,0.1,0,0.3-0.1,0.4
		l-0.8,0.5C14,2.3,13.9,2.2,13.8,2.1z"/>
	<path class="st3" d="M14.4,7.2L14.4,7.2c0.2-0.1,0.3,0,0.4,0.1l0.3,0.9c0,0.1,0,0.3-0.2,0.3l0,0c-0.1,0-0.3,0-0.3-0.2l-0.3-0.9
		C14.2,7.4,14.3,7.2,14.4,7.2z"/>
	<path class="st4" d="M15,11.5L15,11.5c-0.1-0.2,0-0.3,0.2-0.4l0.9-0.2c0.1,0,0.3,0,0.3,0.2l0,0c0,0.1,0,0.3-0.2,0.3l-0.9,0.2
		C15.1,11.7,15,11.6,15,11.5z"/>
	<path class="st6" d="M11.9,5.6L11.9,5.6c0-0.2,0.1-0.3,0.2-0.4L13,5c0.1,0,0.3,0.1,0.3,0.2l0,0c0,0.1-0.1,0.3-0.2,0.3l-0.9,0.2
		C12.1,5.8,12,5.7,11.9,5.6z"/>
	<path class="st5" d="M10.5,1.8L10.5,1.8c0.1-0.1,0.3-0.1,0.4,0l0.6,0.7c0.1,0.1,0.1,0.3,0,0.4l0,0C11.3,3,11.1,3,11,2.9l-0.6-0.7
		C10.3,2.1,10.4,1.9,10.5,1.8z"/>
	<path class="st7" d="M8.4,3.4L8.4,3.4c0.2,0,0.3,0.2,0.3,0.3L8.5,4.6c0,0.1-0.2,0.2-0.3,0.2l0,0C8,4.8,7.9,4.7,7.9,4.6l0.1-0.9
		C8.1,3.5,8.2,3.4,8.4,3.4z"/>
	<path class="st4" d="M6.3,7.1L6.3,7.1C6.4,7,6.6,7,6.7,7.1l0.5,0.8C7.2,8,7.2,8.2,7,8.2l0,0c-0.1,0.1-0.3,0-0.4-0.1L6.2,7.4
		C6.1,7.3,6.1,7.1,6.3,7.1z"/>
	<path class="st6" d="M4.6,3L4.6,3C4.8,2.9,4.9,2.9,5,3l0.6,0.7c0.1,0.1,0.1,0.3,0,0.4l0,0c-0.1,0.1-0.3,0.1-0.4,0L4.6,3.4
		C4.5,3.3,4.5,3.1,4.6,3z"/>
	<path class="st5" d="M10.6,8.6L10.6,8.6c-0.1-0.2,0-0.3,0.1-0.4L11.4,8c0.1,0,0.3,0,0.3,0.2l0,0.1c0,0.1,0,0.3-0.2,0.3l-0.7,0.2
		C10.7,8.8,10.6,8.7,10.6,8.6z"/>
	<path class="st8" d="M14.5,14.5c0.1-0.2,0-0.4-0.1-0.6c-0.7-0.7-2.9-3-4.2-2.4c-1.4,0.6,3.3,2.6,3.8,3.1
		C14.3,14.8,14.4,14.7,14.5,14.5z"/>
	<path class="st8" d="M8.6,11.3c0,0.2-0.6,0.3-0.8,0.3s-0.4-0.1-0.4-0.3c0-0.2,0.2-0.3,0.4-0.3S8.6,11.1,8.6,11.3z"/>
	<path class="st9" d="M18.2,16.6c0,0-5.2-8.5-11.1-6.7s-3.3,8.1-1.3,11.5s5.5,4.6,10,4.4c4.5-0.2,8.2-5,8.9-10.4
		c0,0,2.7,1.2,4.5-0.8c0,0-3.6-3-4.8-1.7c0,0,0.6-1.9-3.5-4.2c0,0-1.8,3,2.1,5.5c0,0,0.1,2.8-2.1,3.1S18.2,16.6,18.2,16.6z"/>
	<path class="st10" d="M3.7,15.5l2,1.8c1.8,3.6,4.9,7.7,10.1,6.4c8.9-2.2,8.7-8.7,8.7-8.7c-0.7,5-3.5,9.4-7.5,10.3
		c0.1,3.9-2.6,5.2-2.6,5.2l-1.3-5.1c-3.2-0.3-5.8-1.7-7.3-4.3C5,19.6,4,17.5,3.7,15.5"/>
	<path class="st9" d="M3.6,15c0,0,1.6,3.8,7.9,4.3"/>
	<path class="st1" d="M12.3,22l2.2,9c0,0,4.1-2,2-8.6l3-0.7"/>
</g>
</svg>
