<?xml version="1.0" encoding="utf-8"?>
<!-- Generator: Adobe Illustrator 23.0.1, SVG Export Plug-In . SVG Version: 6.00 Build 0)  -->
<svg version="1.1" id="Layer_1" xmlns="http://www.w3.org/2000/svg" xmlns:xlink="http://www.w3.org/1999/xlink" x="0px" y="0px"
	 viewBox="0 0 16 16" style="enable-background:new 0 0 16 16;" xml:space="preserve">
<style type="text/css">
	.st0{fill:#4DC2C1;stroke:#EEF8F7;stroke-width:0.7723;stroke-linecap:round;stroke-linejoin:round;stroke-miterlimit:10;}
	.st1{fill:#4FC2C1;stroke:#EEF8F7;stroke-width:0.7723;stroke-linecap:round;stroke-linejoin:round;stroke-miterlimit:10;}
	.st2{fill:#1D575B;}
	.st3{fill:#F06598;}
	.st4{fill:#FCBA61;}
	.st5{fill:#F26C57;}
	.st6{fill:#A678A8;}
	.st7{fill:#1C565A;}
	.st8{fill:#ABDDDD;}
	.st9{fill:none;stroke:#EEF8F7;stroke-width:0.7723;stroke-linecap:round;stroke-linejoin:round;stroke-miterlimit:10;}
	.st10{fill:#3BBDC2;}
</style>
<g>
	<path class="st0" d="M-0.11,12.28c0,0-7.38-11.9-15.54-9.36s-4.6,11.42-1.82,16.18s7.77,6.5,14.12,6.19
		c6.34-0.32,11.5-7.06,12.53-14.67c0,0,3.81,1.74,6.27-1.11c0,0-5.08-4.28-6.74-2.46c0,0,0.8-2.7-4.91-5.87c0,0-2.46,4.28,2.93,7.69
		c0,0,0.17,4-2.93,4.38C0.68,13.63-0.11,12.28-0.11,12.28z"/>
	<path class="st1" d="M-21.37,24.58l3.83-5.55c1.01,1.73,2.32,3.07,3.88,4.05C-13.66,23.08-16.85,26.24-21.37,24.58z"/>
	<circle class="st2" cx="-10.8" cy="11.8" r="0.72"/>
	<path class="st3" d="M-13.32-0.93l-0.05-0.05c-0.15-0.14-0.16-0.37-0.02-0.52l0.87-0.93c0.14-0.15,0.37-0.16,0.52-0.02l0.05,0.05
		c0.15,0.14,0.16,0.37,0.02,0.52l-0.87,0.93C-12.94-0.79-13.17-0.79-13.32-0.93z"/>
	<path class="st4" d="M-2.25-4.35l-0.06-0.04c-0.17-0.1-0.23-0.33-0.13-0.51l0.65-1.1c0.1-0.17,0.33-0.23,0.51-0.13l0.06,0.04
		c0.17,0.1,0.23,0.33,0.13,0.51l-0.65,1.1C-1.85-4.3-2.07-4.24-2.25-4.35z"/>
	<path class="st5" d="M0.4-0.57L0.36-0.63C0.24-0.79,0.27-1.02,0.44-1.14L1.47-1.9c0.16-0.12,0.39-0.08,0.52,0.08l0.04,0.06
		C2.14-1.6,2.11-1.37,1.94-1.25L0.91-0.49C0.75-0.37,0.52-0.41,0.4-0.57z"/>
	<path class="st3" d="M5.23-1.2l0.01-0.07c0.03-0.2,0.22-0.34,0.42-0.31L6.93-1.4c0.2,0.03,0.34,0.22,0.31,0.42L7.23-0.92
		C7.2-0.71,7.01-0.57,6.81-0.6L5.55-0.78C5.35-0.81,5.21-1,5.23-1.2z"/>
	<path class="st6" d="M4.1-4.26L4.03-4.25C3.83-4.21,3.64-4.34,3.6-4.54L3.37-5.8C3.33-6,3.46-6.19,3.66-6.23l0.07-0.01
		c0.2-0.04,0.39,0.09,0.43,0.29l0.24,1.26C4.43-4.49,4.3-4.3,4.1-4.26z"/>
	<path class="st7" d="M-6.36-8.15l-0.04-0.06c-0.11-0.17-0.05-0.4,0.12-0.51l1.09-0.67c0.17-0.11,0.4-0.05,0.51,0.12l0.04,0.06
		c0.11,0.17,0.05,0.4-0.12,0.51l-1.09,0.67C-6.02-7.92-6.25-7.97-6.36-8.15z"/>
	<path class="st3" d="M-5.49-1.03l0.06-0.02c0.19-0.07,0.4,0.03,0.47,0.22l0.43,1.2c0.07,0.19-0.03,0.4-0.22,0.47l-0.06,0.02
		c-0.19,0.07-0.4-0.03-0.47-0.22l-0.43-1.2C-5.78-0.75-5.68-0.96-5.49-1.03z"/>
	<path class="st4" d="M-4.74,5.03l-0.02-0.07c-0.05-0.2,0.06-0.4,0.26-0.45l1.23-0.34c0.2-0.05,0.4,0.06,0.45,0.26l0.02,0.07
		c0.05,0.2-0.06,0.4-0.26,0.45l-1.23,0.34C-4.48,5.34-4.68,5.23-4.74,5.03z"/>
	<path class="st6" d="M-8.96-3.29l-0.01-0.07c-0.04-0.2,0.09-0.39,0.29-0.43l1.25-0.25c0.2-0.04,0.39,0.09,0.43,0.29l0.01,0.07
		c0.04,0.2-0.09,0.39-0.29,0.43L-8.52-3C-8.72-2.96-8.92-3.09-8.96-3.29z"/>
	<path class="st5" d="M-11.05-8.54l0.05-0.04c0.16-0.13,0.39-0.11,0.52,0.04l0.82,0.98C-9.52-7.4-9.54-7.17-9.7-7.04L-9.75-7
		c-0.16,0.13-0.39,0.11-0.52-0.04l-0.82-0.98C-11.22-8.17-11.2-8.41-11.05-8.54z"/>
	<path class="st7" d="M-14-6.28l0.07,0.01c0.2,0.03,0.34,0.22,0.31,0.42l-0.18,1.26c-0.03,0.2-0.22,0.34-0.42,0.31l-0.07-0.01
		c-0.2-0.03-0.34-0.22-0.31-0.42l0.18-1.26C-14.38-6.17-14.2-6.31-14-6.28z"/>
	<path class="st4" d="M-16.97-1.2l0.06-0.04c0.17-0.11,0.4-0.05,0.51,0.12l0.67,1.09c0.11,0.17,0.05,0.4-0.12,0.51l-0.06,0.04
		c-0.17,0.11-0.4,0.05-0.51-0.12l-0.67-1.09C-17.2-0.87-17.14-1.09-16.97-1.2z"/>
	<path class="st6" d="M-19.25-6.91l0.05-0.04c0.16-0.13,0.39-0.11,0.52,0.04l0.82,0.98c0.13,0.16,0.11,0.39-0.04,0.52l-0.05,0.04
		c-0.16,0.13-0.39,0.11-0.52-0.04l-0.82-0.98C-19.42-6.54-19.4-6.77-19.25-6.91z"/>
	<path class="st5" d="M-10.91,0.93l-0.03-0.11c-0.05-0.18,0.05-0.38,0.23-0.43l1.02-0.3c0.18-0.05,0.38,0.05,0.43,0.23l0.03,0.11
		c0.05,0.18-0.05,0.38-0.23,0.43l-1.02,0.3C-10.66,1.22-10.86,1.12-10.91,0.93z"/>
	<path class="st8" d="M-5.41,9.28C-5.31,9-5.39,8.68-5.6,8.46c-0.93-0.98-4.14-4.16-5.85-3.44c-2.01,0.85,4.59,3.69,5.38,4.33
		C-5.68,9.66-5.5,9.51-5.41,9.28z"/>
	<path class="st8" d="M-13.66,4.73c0,0.25-0.86,0.46-1.17,0.46c-0.3,0-0.55-0.2-0.55-0.46c0-0.25,0.24-0.46,0.55-0.46
		C-14.52,4.27-13.66,4.47-13.66,4.73z"/>
	<path class="st9" d="M-0.11,12.28c0,0-7.38-11.9-15.54-9.36s-4.6,11.42-1.82,16.18s7.77,6.5,14.12,6.19
		c6.34-0.32,11.5-7.06,12.53-14.67c0,0,3.81,1.74,6.27-1.11c0,0-5.08-4.28-6.74-2.46c0,0,0.8-2.7-4.91-5.87c0,0-2.46,4.28,2.93,7.69
		c0,0,0.17,4-2.93,4.38C0.68,13.63-0.11,12.28-0.11,12.28z"/>
	<path class="st10" d="M-20.54,10.72l2.87,2.53c2.48,5.09,6.96,10.77,14.19,8.97C9,19.12,8.79,9.98,8.79,9.98
		C7.84,16.96,3.82,23.24-1.79,24.48c0.08,5.5-3.63,7.35-3.63,7.35l-1.77-7.22c-4.52-0.47-8.09-2.35-10.28-6.1
		C-18.7,16.41-20.08,13.52-20.54,10.72"/>
	<path class="st9" d="M-20.7,9.98c0,0,2.27,5.39,11.07,6.03"/>
	<path class="st1" d="M-8.52,19.82l3.09,12.61c0,0,5.74-2.85,2.79-12.05l4.19-0.95"/>
</g>
</svg>
