<?xml version="1.0" encoding="utf-8"?>
<!-- Generator: Adobe Illustrator 22.1.0, SVG Export Plug-In . SVG Version: 6.00 Build 0)  -->
<svg version="1.1" id="Layer_1" xmlns="http://www.w3.org/2000/svg" xmlns:xlink="http://www.w3.org/1999/xlink" x="0px" y="0px"
	 viewBox="0 0 145.2 65.4" style="enable-background:new 0 0 145.2 65.4;" xml:space="preserve">
<style type="text/css">
	.st0{fill:#4DC2C1;stroke:#EEF8F7;stroke-width:1.1952;stroke-linecap:round;stroke-linejoin:round;stroke-miterlimit:10;}
	.st1{fill:#4FC2C1;stroke:#EEF8F7;stroke-width:1.1952;stroke-linecap:round;stroke-linejoin:round;stroke-miterlimit:10;}
	.st2{fill:#1D575B;}
	.st3{fill:#F06598;}
	.st4{fill:#FCBA61;}
	.st5{fill:#F26C57;}
	.st6{fill:#A678A8;}
	.st7{fill:#1C565A;}
	.st8{fill:#ABDDDD;}
	.st9{fill:none;stroke:#EEF8F7;stroke-width:1.1952;stroke-linecap:round;stroke-linejoin:round;stroke-miterlimit:10;}
	.st10{fill:#3BBDC2;}
	.st11{font-family:'MuseoSansRounded-900';}
	.st12{font-size:12.993px;}
	.st13{font-family:'Como-Medium';}
	.st14{font-size:8.4143px;}
</style>
<g>
	<path class="st0" d="M33.5,33.6c0,0-11.4-18.4-24.1-14.5s-7.1,17.7-2.8,25s12,10.1,21.8,9.6S46.3,42.8,47.8,31c0,0,5.9,2.7,9.7-1.7
		c0,0-7.9-6.6-10.4-3.8c0,0,1.2-4.2-7.6-9.1c0,0-3.8,6.6,4.5,11.9c0,0,0.3,6.2-4.5,6.8S33.5,33.6,33.5,33.6z"/>
	<path class="st1" d="M0.6,52.6l5.9-8.6c1.6,2.7,3.6,4.7,6,6.3C12.5,50.3,7.6,55.2,0.6,52.6z"/>
	<circle class="st2" cx="16.9" cy="32.9" r="1.1"/>
	<path class="st3" d="M13.1,13.2L13.1,13.2c-0.3-0.3-0.3-0.6-0.1-0.9l1.4-1.4c0.2-0.2,0.6-0.2,0.8,0l0.1,0.1c0.2,0.2,0.2,0.6,0,0.8
		l-1.4,1.4C13.6,13.4,13.3,13.4,13.1,13.2z"/>
	<path class="st4" d="M30.2,7.9L30.2,7.9c-0.4-0.2-0.5-0.6-0.3-0.8l1-1.7c0.2-0.3,0.5-0.4,0.8-0.2l0.1,0.1C32,5.4,32.1,5.7,32,6
		l-1,1.7C30.8,8,30.5,8,30.2,7.9z"/>
	<path class="st5" d="M34.3,13.7L34.3,13.7c-0.2-0.3-0.2-0.7,0.1-0.9l1.6-1.2c0.3-0.2,0.6-0.1,0.8,0.1l0.1,0.1
		c0.2,0.3,0.1,0.6-0.1,0.8l-1.6,1.2C34.8,14,34.5,14,34.3,13.7z"/>
	<path class="st3" d="M41.8,12.7l0-0.1c0-0.3,0.3-0.5,0.6-0.5l2,0.3c0.3,0,0.5,0.3,0.5,0.6l0,0.1c0,0.3-0.3,0.5-0.6,0.5l-2-0.3
		C41.9,13.3,41.7,13.1,41.8,12.7z"/>
	<path class="st6" d="M40,8l-0.1,0c-0.3,0.1-0.6-0.1-0.7-0.5l-0.4-1.9C38.8,5.3,39,5,39.3,5l0.1,0c0.3-0.1,0.6,0.1,0.7,0.5l0.4,1.9
		C40.5,7.7,40.3,7.9,40,8z"/>
	<path class="st6" d="M33.7,27.9l-0.1,0c-0.3,0.1-0.6-0.1-0.7-0.5l-0.4-1.9c-0.1-0.3,0.1-0.6,0.5-0.7l0.1,0c0.3-0.1,0.6,0.1,0.7,0.5
		l0.4,1.9C34.2,27.5,34,27.8,33.7,27.9z"/>
	<path class="st7" d="M31.3,17.1L31.3,17.1c0.2-0.3,0.6-0.4,0.9-0.2l1.6,1.1c0.3,0.2,0.3,0.5,0.1,0.8l-0.1,0.1
		c-0.2,0.3-0.5,0.3-0.8,0.1l-1.6-1.1C31.1,17.7,31.1,17.4,31.3,17.1z"/>
	<path class="st7" d="M23.8,2L23.8,2c-0.2-0.4-0.1-0.7,0.1-0.9l1.7-1c0.3-0.2,0.6-0.1,0.8,0.2l0.1,0.1c0.2,0.3,0.1,0.6-0.2,0.8
		l-1.7,1C24.3,2.3,24,2.3,23.8,2z"/>
	<path class="st3" d="M25.2,13l0.1,0c0.3-0.1,0.6,0.1,0.7,0.3l0.7,1.9c0.1,0.3-0.1,0.6-0.3,0.7l-0.1,0c-0.3,0.1-0.6-0.1-0.7-0.3
		l-0.7-1.9C24.7,13.4,24.9,13.1,25.2,13z"/>
	<path class="st4" d="M26.3,22.4l0-0.1c-0.1-0.3,0.1-0.6,0.4-0.7l1.9-0.5c0.3-0.1,0.6,0.1,0.7,0.4l0,0.1c0.1,0.3-0.1,0.6-0.4,0.7
		L27,22.8C26.7,22.9,26.4,22.7,26.3,22.4z"/>
	<path class="st6" d="M19.8,9.5l0-0.1c-0.1-0.3,0.1-0.6,0.5-0.7l1.9-0.4c0.3-0.1,0.6,0.1,0.7,0.5l0,0.1c0.1,0.3-0.1,0.6-0.5,0.7
		L20.5,10C20.2,10,19.9,9.8,19.8,9.5z"/>
	<path class="st5" d="M16.6,1.4L16.6,1.4c0.3-0.3,0.7-0.2,0.9,0l1.3,1.5c0.2,0.2,0.2,0.6-0.1,0.8l-0.1,0.1C18.3,4,18,4,17.8,3.7
		l-1.3-1.5C16.3,2,16.3,1.6,16.6,1.4z"/>
	<path class="st7" d="M12,4.9l0.1,0c0.3,0,0.5,0.3,0.5,0.6l-0.3,2C12.3,7.8,12,8,11.7,8l-0.1,0c-0.3,0-0.5-0.3-0.5-0.6l0.3-2
		C11.4,5.1,11.7,4.8,12,4.9z"/>
	<path class="st4" d="M7.4,12.8L7.4,12.8c0.4-0.2,0.7-0.1,0.9,0.1l1,1.7c0.2,0.3,0.1,0.6-0.2,0.8L9,15.4c-0.3,0.2-0.6,0.1-0.8-0.2
		l-1-1.7C7,13.3,7.1,12.9,7.4,12.8z"/>
	<path class="st6" d="M3.9,3.9L3.9,3.9c0.3-0.3,0.7-0.2,0.9,0L6,5.4C6.2,5.7,6.2,6,6,6.2L5.9,6.3C5.6,6.5,5.3,6.5,5.1,6.2L3.8,4.7
		C3.6,4.5,3.6,4.1,3.9,3.9z"/>
	<path class="st5" d="M16.8,16.1l-0.1-0.2c-0.1-0.3,0.1-0.6,0.4-0.7l1.6-0.5c0.3-0.1,0.6,0.1,0.7,0.4l0.1,0.2
		c0.1,0.3-0.1,0.6-0.4,0.7l-1.6,0.5C17.2,16.5,16.9,16.3,16.8,16.1z"/>
	<path class="st8" d="M25.3,29c0.2-0.4,0-0.9-0.3-1.3c-1.4-1.5-6.4-6.4-9-5.3c-3.1,1.3,7.1,5.7,8.3,6.7C24.9,29.6,25.2,29.3,25.3,29
		z"/>
	<path class="st8" d="M12.5,21.9c0,0.4-1.3,0.7-1.8,0.7s-0.8-0.3-0.8-0.7c0-0.4,0.4-0.7,0.8-0.7S12.5,21.5,12.5,21.9z"/>
	<path class="st9" d="M33.5,33.6c0,0-11.4-18.4-24.1-14.5s-7.1,17.7-2.8,25s12,10.1,21.8,9.6S46.3,42.8,47.8,31c0,0,5.9,2.7,9.7-1.7
		c0,0-7.9-6.6-10.4-3.8c0,0,1.2-4.2-7.6-9.1c0,0-3.8,6.6,4.5,11.9c0,0,0.3,6.2-4.5,6.8S33.5,33.6,33.5,33.6z"/>
	<path class="st10" d="M1.9,31.2l4.4,3.9c3.8,7.9,10.8,16.7,22,13.9c19.3-4.8,19-18.9,19-18.9c-1.5,10.8-7.7,20.5-16.4,22.4
		c0.1,8.5-5.6,11.4-5.6,11.4l-2.7-11.2c-7-0.7-12.5-3.6-15.9-9.4C4.7,40,2.6,35.5,1.9,31.2"/>
	<path class="st9" d="M1.6,30.1c0,0,3.5,8.3,17.1,9.3"/>
	<path class="st1" d="M20.5,45.3l4.8,19.5c0,0,8.9-4.4,4.3-18.7l6.5-1.5"/>
</g>
<text transform="matrix(1 0 0 1 61.8422 34.7889)"><tspan x="0" y="0" class="st10 st11 st12">C</tspan><tspan x="9.6" y="0" class="st10 st11 st12">A</tspan><tspan x="18.2" y="0" class="st10 st11 st12">N</tspan><tspan x="27.5" y="0" class="st10 st11 st12">DY </tspan><tspan x="48" y="0" class="st10 st11 st12">S</tspan><tspan x="55.4" y="0" class="st10 st11 st12">HOP</tspan></text>
<text transform="matrix(1 0 0 1 61.8422 43.9793)" class="st7 st13 st14">sweet and tasty</text>
</svg>
