<?xml version="1.0" encoding="utf-8"?>
<!-- Generator: Adobe Illustrator 23.0.1, SVG Export Plug-In . SVG Version: 6.00 Build 0)  -->
<svg version="1.1" id="Layer_1" xmlns="http://www.w3.org/2000/svg" xmlns:xlink="http://www.w3.org/1999/xlink" x="0px" y="0px"
	 viewBox="0 0 16 16" style="enable-background:new 0 0 16 16;" xml:space="preserve">
<style type="text/css">
	.st0{fill:#F06598;}
	.st1{fill:#FCBA61;}
	.st2{fill:#F26C57;}
	.st3{fill:#A678A8;}
	.st4{fill:#1C565A;}
</style>
<g>
	<path class="st0" d="M3.81,8.03L3.78,8.01c-0.09-0.08-0.09-0.22-0.01-0.3l0.5-0.54c0.08-0.09,0.22-0.09,0.3-0.01L4.6,7.19
		c0.09,0.08,0.09,0.22,0.01,0.3l-0.5,0.54C4.03,8.11,3.89,8.11,3.81,8.03z"/>
	<path class="st1" d="M10.2,6.06l-0.03-0.02c-0.1-0.06-0.13-0.19-0.07-0.29l0.38-0.63c0.06-0.1,0.19-0.13,0.29-0.07l0.03,0.02
		c0.1,0.06,0.13,0.19,0.07,0.29l-0.38,0.63C10.43,6.09,10.3,6.12,10.2,6.06z"/>
	<path class="st2" d="M11.72,8.24L11.7,8.21c-0.07-0.09-0.05-0.23,0.05-0.3l0.6-0.44c0.09-0.07,0.23-0.05,0.3,0.05l0.02,0.03
		c0.07,0.09,0.05,0.23-0.05,0.3l-0.6,0.44C11.92,8.35,11.79,8.33,11.72,8.24z"/>
	<path class="st0" d="M14.52,7.88l0.01-0.04c0.02-0.12,0.12-0.2,0.24-0.18l0.73,0.1c0.12,0.02,0.2,0.12,0.18,0.24l-0.01,0.04
		c-0.02,0.12-0.12,0.2-0.24,0.18l-0.73-0.1C14.58,8.1,14.5,7.99,14.52,7.88z"/>
	<path class="st3" d="M13.86,6.11l-0.04,0.01c-0.12,0.02-0.23-0.05-0.25-0.17l-0.14-0.72c-0.02-0.12,0.05-0.23,0.17-0.25l0.04-0.01
		c0.12-0.02,0.23,0.05,0.25,0.17l0.14,0.72C14.05,5.98,13.98,6.09,13.86,6.11z"/>
	<path class="st3" d="M11.51,13.52l-0.04,0.01c-0.12,0.02-0.23-0.05-0.25-0.17l-0.14-0.72c-0.02-0.12,0.05-0.23,0.17-0.25l0.04-0.01
		c0.12-0.02,0.23,0.05,0.25,0.17l0.14,0.72C11.7,13.39,11.62,13.5,11.51,13.52z"/>
	<path class="st4" d="M10.59,9.51l0.02-0.03c0.07-0.1,0.2-0.12,0.3-0.05l0.6,0.43c0.1,0.07,0.12,0.2,0.05,0.3l-0.02,0.03
		c-0.07,0.1-0.2,0.12-0.3,0.05l-0.6-0.43C10.55,9.74,10.53,9.6,10.59,9.51z"/>
	<path class="st4" d="M7.82,3.87L7.8,3.83C7.74,3.73,7.77,3.6,7.87,3.54L8.5,3.15c0.1-0.06,0.23-0.03,0.29,0.07l0.02,0.03
		c0.06,0.1,0.03,0.23-0.07,0.29L8.12,3.94C8.02,4,7.88,3.97,7.82,3.87z"/>
	<path class="st0" d="M8.32,7.98l0.04-0.01c0.11-0.04,0.23,0.02,0.27,0.13l0.25,0.7C8.92,8.9,8.86,9.02,8.75,9.06L8.71,9.07
		C8.6,9.11,8.48,9.05,8.44,8.94l-0.25-0.7C8.15,8.14,8.21,8.02,8.32,7.98z"/>
	<path class="st1" d="M8.76,11.47l-0.01-0.04c-0.03-0.11,0.03-0.23,0.15-0.26l0.71-0.2c0.11-0.03,0.23,0.03,0.26,0.15l0.01,0.04
		c0.03,0.11-0.03,0.23-0.15,0.26l-0.71,0.2C8.91,11.65,8.79,11.59,8.76,11.47z"/>
	<path class="st3" d="M6.32,6.67L6.31,6.63C6.29,6.52,6.37,6.4,6.48,6.38l0.72-0.14c0.12-0.02,0.23,0.05,0.25,0.17l0.01,0.04
		C7.49,6.56,7.41,6.67,7.3,6.7L6.57,6.84C6.46,6.86,6.35,6.79,6.32,6.67z"/>
	<path class="st2" d="M5.12,3.64l0.03-0.03c0.09-0.08,0.22-0.06,0.3,0.03L5.92,4.2C6,4.29,5.99,4.43,5.9,4.5L5.87,4.53
		C5.78,4.61,5.64,4.59,5.57,4.5L5.09,3.94C5.02,3.85,5.03,3.72,5.12,3.64z"/>
	<path class="st4" d="M3.41,4.94l0.04,0.01c0.12,0.02,0.2,0.12,0.18,0.24l-0.1,0.73C3.51,6.04,3.41,6.12,3.29,6.1L3.25,6.09
		c-0.12-0.02-0.2-0.12-0.18-0.24l0.1-0.73C3.19,5.01,3.3,4.93,3.41,4.94z"/>
	<path class="st1" d="M1.7,7.88l0.03-0.02c0.1-0.06,0.23-0.03,0.29,0.07l0.39,0.63c0.06,0.1,0.03,0.23-0.07,0.29L2.31,8.87
		C2.21,8.93,2.08,8.9,2.01,8.8L1.63,8.17C1.57,8.07,1.6,7.94,1.7,7.88z"/>
	<path class="st3" d="M0.38,4.58l0.03-0.03c0.09-0.08,0.22-0.06,0.3,0.03l0.48,0.56c0.08,0.09,0.06,0.22-0.03,0.3L1.13,5.47
		c-0.09,0.08-0.22,0.06-0.3-0.03L0.36,4.88C0.28,4.79,0.29,4.66,0.38,4.58z"/>
	<path class="st2" d="M5.2,9.11L5.18,9.05C5.15,8.94,5.21,8.83,5.31,8.8L5.9,8.62C6,8.59,6.11,8.65,6.15,8.76l0.02,0.06
		C6.2,8.93,6.14,9.04,6.03,9.07L5.44,9.24C5.34,9.27,5.23,9.21,5.2,9.11z"/>
</g>
</svg>
