<svg xmlns="http://www.w3.org/2000/svg" width="252" height="252" viewBox="0 0 252 252"><path d="M92.7 170.4l6 12.8a1.9 1.9 0 0 0 2.7.7l11.6-8a1.9 1.9 0 0 1 2.5.3l9.1 10.7a1.8 1.8 0 0 0 2.8 0c3.1-3.5 6.1-7.1 9.1-10.7a1.9 1.9 0 0 1 2.5-.3l11.6 8a1.9 1.9 0 0 0 2.7-.7c2-4.3 4-8.5 6.1-12.8a1.9 1.9 0 0 1 2.3-1l7.1 2.6a3.8 3.8 0 0 1 2.3 3.4c.1 17.6.1 53.7.1 73.5a1.9 1.9 0 0 1-2.6 1.7l-4.6-2-36.3-15.5a5.3 5.3 0 0 0-3.5.1l-40.8 17.4a1.9 1.9 0 0 1-2.6-1.7v-17.2c0-10 .1-46.2 0-56.3 0-2.1.6-2.9 2.6-3.5s4.6-1.6 7-2.5a1.9 1.9 0 0 1 2.3 1z"/><path d="M210 84.2l-6.9-5.8a3.1 3.1 0 0 1-.5-4l5.1-7.5a3 3 0 0 0-1.1-4.4l-8.2-3.9a2.9 2.9 0 0 1-1.5-3.7l3-8.5a3.1 3.1 0 0 0-2.3-4l-8.8-1.6a3.1 3.1 0 0 1-2.5-3.2c.3-3.1.5-6 .7-9a2.9 2.9 0 0 0-3.2-3.2l-6.1.4c-5.6.5-5.6.5-6.6-4.9-.3-2.1-.7-4.1-1.1-6.2a3.1 3.1 0 0 0-3.9-2.3l-8.6 3.1a3.1 3.1 0 0 1-3.7-1.6l-3.9-8.1a3 3 0 0 0-4.4-1.2l-7.4 5.1a2.8 2.8 0 0 1-3.9-.5l-5.9-6.9a3 3 0 0 0-4.6 0l-5.8 6.9a3 3 0 0 1-4 .5l-7.4-5.1a3 3 0 0 0-4.4 1.2l-3.9 8.1a3.1 3.1 0 0 1-3.7 1.6l-8.5-3a3 3 0 0 0-4 2.3c-.5 2.8-.9 5.4-1.4 8.1s-.8 3.5-4.6 3.1l-7.8-.6a2.9 2.9 0 0 0-3.2 3.2c.2 3.2.4 6.3.8 9.4s-.6 2.6-2.4 2.8l-9 1.6a3.1 3.1 0 0 0-2.3 4c1.1 2.9 2 5.7 3.1 8.5a3 3 0 0 1-1.6 3.7l-8.1 3.9a2.9 2.9 0 0 0-1.2 4.4l5.1 7.5a2.8 2.8 0 0 1-.5 3.9L42 84.2a3 3 0 0 0 0 4.6l6.9 5.9a2.8 2.8 0 0 1 .5 3.9l-5.1 7.5a2.9 2.9 0 0 0 1.2 4.4l8.1 3.9a3 3 0 0 1 1.6 3.7l-3.1 8.5a3.1 3.1 0 0 0 2.3 4c3.1.6 6.2 1.2 9.2 1.6s2.4.9 2.2 2.7-.6 6.4-.8 9.6a2.9 2.9 0 0 0 3.1 3.2h.1c3.2-.3 6.5-.5 9.7-.9 1.5-.1 2.2.3 2.5 2s1 6.2 1.6 9.5a3.1 3.1 0 0 0 4 2.2l8.5-3a3.1 3.1 0 0 1 3.7 1.6l3.9 8.1a2.9 2.9 0 0 0 4.4 1.2l7.4-5.1a3 3 0 0 1 4 .5l5.8 6.9a3 3 0 0 0 4.6 0l5.8-6.9a3 3 0 0 1 4-.5l7.5 5.1a3 3 0 0 0 4.4-1.2l3.8-8.1a3.1 3.1 0 0 1 3.7-1.6l8.6 3a2.9 2.9 0 0 0 3.9-2.3c.3-1.4.5-2.9.8-4.3a8.1 8.1 0 0 1 8.6-6.6l4.5.3a2.9 2.9 0 0 0 3.1-3.2c-.2-3.3-.4-6.4-.8-9.4s.4-2.5 2.2-2.8l9.2-1.6a3.1 3.1 0 0 0 2.3-4l-3-8.5a2.9 2.9 0 0 1 1.5-3.7l8.2-3.9a3 3 0 0 0 1.1-4.4l-5.1-7.5a2.9 2.9 0 0 1 .5-3.9l6.9-5.9a3 3 0 0 0 0-4.6zm-84 63.2a60.9 60.9 0 1 1 60.9-60.9 60.9 60.9 0 0 1-60.9 60.9z"/><path d="M126 31.9a54.6 54.6 0 1 0 54.6 54.6A54.6 54.6 0 0 0 126 31.9zm30 39.2l-35.4 43.8a4.2 4.2 0 0 1-3.3 1.6h-.2a4.2 4.2 0 0 1-3.2-1.3L96.2 96.7a4.5 4.5 0 1 1 6.5-6.2l14.2 14.8 32.2-39.9a4.5 4.5 0 1 1 6.9 5.7z"/></svg>