<svg xmlns="http://www.w3.org/2000/svg" width="252" height="252" viewBox="0 0 252 252"><path d="M91.9 127.6c-12.5-12.5-24.4-24.5-36.4-36.4l-37.4-37C10.8 47 7.6 38.6 11.6 28.7s11.8-16.2 22.9-17c7.2-.5 12.9 2.9 17.9 7.9l30.1 29.9L125.8 93l3-2.8 70.5-70.6c6.7-6.7 14.3-10.3 23.7-7.4s16.1 9.7 18.5 19.8c1.9 7.9-.7 14.7-6.2 20.4l-19.1 19.1q-26.2 26.4-52.7 52.7a37.2 37.2 0 0 1-3.4 2.6l3.4 3.6 68.7 68.9c4.5 4.6 8.5 9.3 9.3 16.1 1.1 9.6-4.7 20-14.3 25s-18.6 3.6-26.2-3.8c-18.2-18-36.2-36.1-54.3-54.2l-21.5-21.7c-.8 1.5-1.1 2.9-2 3.8-23.3 23.6-46.9 46.9-70 70.6-16.6 17-37.7 4.5-41.9-10.7a21.3 21.3 0 0 1 3.1-18.8 45.3 45.3 0 0 1 5-5.7q34.5-34.8 69.1-69.4c1-1 2-1.7 3.4-2.9z"/></svg>