<svg xmlns="http://www.w3.org/2000/svg" width="252" height="252" viewBox="0 0 252 252"><path d="M126.3 37.2c34.5 0 68.9-.1 103.4 0a39.5 39.5 0 0 1 9.7 1A17.4 17.4 0 0 1 252 55.3c-.1 8.1-5.1 15-12.8 17a39 39 0 0 1-9.7 1q-103.3.2-206.7 0a39 39 0 0 1-9.7-1C5.1 70.3 0 63.2.2 54.9a17.2 17.2 0 0 1 13-16.8 39.6 39.6 0 0 1 9.1-.9c34.7-.1 69.3 0 104 0zm.2 72h105.3c11.2.1 19 6.3 20.1 15.7a17.8 17.8 0 0 1-14.7 20 36.3 36.3 0 0 1-6.5.5H21.3C8.9 145.4.8 138.9.2 128.7s7.3-19.3 19.6-19.5c15.9-.1 31.9 0 47.8 0zm-.3 108.2c-34.9 0-69.8.2-104.7-.2a30 30 0 0 1-15.1-4.6c-6-3.9-7.4-10.7-5.8-17.5a16.7 16.7 0 0 1 12.6-12.9 28.2 28.2 0 0 1 7.1-.9q105.8-.2 211.3 0c11.3 0 19.1 6.1 20.2 15.5 1.4 11.5-6.6 20.4-19 20.6-14.6.2-29.2 0-43.8 0z"/></svg>