<svg xmlns="http://www.w3.org/2000/svg" width="252" height="252" viewBox="0 0 252 252"><path d="M22.9 132.4c3.5-4.6 7.2-9.2 10.6-14a4.9 4.9 0 0 0 .8-3.9c-1.6-5.7-3.4-11.3-5.3-17.4l16.5 6c1.8.7 3.2.9 5-.5 4.6-3.5 9.4-6.6 14.1-9.8 0 5.5.2 10.9-.1 16.2a6.2 6.2 0 0 0 3.1 6.3c4.3 3 8.5 6.3 13.2 9.9-6.1 1.8-11.5 3.4-17 4.8a4.7 4.7 0 0 0-3.7 3.6c-1.7 5.4-3.6 10.7-5.7 16.7-3.4-5.1-6.6-9.7-9.5-14.3a5.4 5.4 0 0 0-5.1-2.8c-5.6-.1-11.1-.5-16.9-.8zm121.9 26.2c7.1-7.3 14.3-14.6 21.2-22.1a9.3 9.3 0 0 0 2.1-6.8c-1.6-10.1-3.8-20.2-5.8-31.2 9.6 4.8 18.6 9.2 27.4 13.7 3.1 1.6 5.4 2.1 8.8.1 8.6-5.1 17.6-9.6 26.3-14.3-1.1 9.6-1.8 19-3.3 28.1-.9 5 .3 8.3 4.1 11.6 7 6 13.5 12.6 21.1 19.7-11 1.9-20.8 3.7-30.5 5-3.7.5-5.6 2.1-7.1 5.4-3.9 9.1-8.3 17.9-13.1 28-4.9-9.6-9.6-18.1-13.8-26.8-1.8-3.6-4-5.3-8.2-5.8-9.6-1.2-19.2-3-29.2-4.6zM131.3 24.9a15.1 15.1 0 0 0-13.4 1.2 15.4 15.4 0 0 0-1.2-13.4 15.1 15.1 0 0 0 13.4-1.2c-1.6 4.7-1.5 9.1 1.2 13.4zM178.6 81c-3.5-3.5-7.4-5.3-12.5-4.9a15.1 15.1 0 0 0 4.9-12.6c3.5 3.6 7.4 5.4 12.5 5.1-3.5 3.5-5.4 7.4-4.9 12.4zm-59.2 40.5c-2.3-5.7-4.3-10.2-5.9-14.8s-2.7-4.9-6.2-5.5-9.4-2.5-15.5-4.1c6.1-2.4 11.1-4.2 15.8-6.5a8.4 8.4 0 0 0 4-4.5c1.6-4.9 2.7-10 5-15.4 1.9 4.7 3.9 9.4 5.6 14.1a6.6 6.6 0 0 0 5.6 4.9c5 1 10 2.5 15.9 4.1-5.9 2.4-11.1 4.3-16 6.7a7.4 7.4 0 0 0-3.7 4.1c-1.7 5.1-2.9 10.4-4.6 16.9zm12.8 81.3c5.9 3.2 10.5 5.8 15.4 8a7.2 7.2 0 0 0 5.6.2c5.1-2 10-4.5 15.7-7.2-2.8 5.4-5 10.2-7.7 14.5-1.7 2.7-1.5 4.9-.2 7.5 2.3 4.4 4.3 9 7 14.7-5.8-3.1-10.4-5.8-15.2-7.9a8.8 8.8 0 0 0-6-.1c-5 1.9-9.7 4.3-15.5 7 3-5.6 5.7-10.2 7.9-15.1a8.8 8.8 0 0 0 .1-6c-1.8-4.9-4.3-9.5-7.1-15.6zm-32.4-38c-2.8 10-1.1 18.7 6 27.6-10.8-2.6-19.6-1.5-27.7 4.9 1.7-9.7 1-18.6-6.7-26.8 6.1.3 10.9 1.5 15.3.6s8.1-3.8 13.1-6.3z"/><circle cx="81.9" cy="229.6" r="4.8"/><circle cx="118.8" cy="152.1" r="5.2"/><circle cx="171.9" cy="32" r="2.9"/><circle cx="9.8" cy="191.3" r="4.5"/></svg>