<svg xmlns="http://www.w3.org/2000/svg" width="252" height="252" viewBox="0 0 252 252"><path d="M129.7 35.3a4.6 4.6 0 0 0-7.4 0c-9.2 13-32.5 48.6-29.4 75.5s10.9 42.9 24.7 46.9l8.4-71.2 7.5 71.4c14.3-3.5 22.3-18.3 25.6-47.1 3.1-26.9-20.2-62.5-29.4-75.5zm110.5 90.4a4.5 4.5 0 0 0-5.2-5.2c-15.6 2.6-57.3 11.4-74.2 32.6s-22.6 38.1-15.6 50.6l56.2-44.4-45.2 55.7c12.7 7.7 28.8 2.9 51.5-15.1s29.9-58.5 32.5-74.2zM17 120.5a4.5 4.5 0 0 0-5.2 5.2c2.6 15.7 11.3 57.3 32.5 74.2s38.1 22.6 50.7 15.6l-44.4-56.2 55.7 45.2c7.7-12.7 2.9-28.7-15.1-51.4-16.9-21.2-58.6-30-74.2-32.6z"/></svg>